<svg xmlns="http://www.w3.org/2000/svg" version="1.1" xmlns:xlink="http://www.w3.org/1999/xlink" xmlns:svgjs="http://svgjs.dev/svgjs" width="1440" height="560" preserveAspectRatio="none" viewBox="0 0 1440 560"><g clip-path="url(&quot;#SvgjsClipPath1017&quot;)" fill="none"><rect width="1440" height="560" x="0" y="0" fill="rgba(15, 17, 41, 1)"></rect><circle r="6.9" cx="857" cy="11" fill="rgba(227, 226, 226, 1)" opacity="0.06" filter="blur(9px)"></circle><circle r="5.1" cx="857" cy="11" fill="rgba(227, 226, 226, 1)" opacity="0.09" filter="blur(6px)"></circle><circle r="3.3" cx="857" cy="11" fill="rgba(227, 226, 226, 1)" opacity="0.18" filter="blur(3px)"></circle><circle r="1.5" cx="857" cy="11" fill="rgba(227, 226, 226, 1)" opacity="0.6" filter="drop-shadow(0 0 7.2px rgba(227, 226, 226, 1))"></circle><circle r="12.45" cx="484" cy="420" fill="rgba(64, 127, 255, 1)" opacity="0.05" filter="blur(9px)"></circle><circle r="9.3" cx="484" cy="420" fill="rgba(64, 127, 255, 1)" opacity="0.08" filter="blur(6px)"></circle><circle r="6.15" cx="484" cy="420" fill="rgba(64, 127, 255, 1)" opacity="0.16" filter="blur(3px)"></circle><circle r="3" cx="484" cy="420" fill="rgba(64, 127, 255, 1)" opacity="0.52" filter="drop-shadow(0 0 12.6px rgba(64, 127, 255, 1))"></circle><circle r="17.675" cx="1173" cy="241" fill="rgba(227, 226, 226, 1)" opacity="0.09" filter="blur(9px)"></circle><circle r="12.95" cx="1173" cy="241" fill="rgba(227, 226, 226, 1)" opacity="0.13" filter="blur(6px)"></circle><circle r="8.225" cx="1173" cy="241" fill="rgba(227, 226, 226, 1)" opacity="0.26" filter="blur(3px)"></circle><circle r="3.5" cx="1173" cy="241" fill="rgba(227, 226, 226, 1)" opacity="0.86" filter="drop-shadow(0 0 18.9px rgba(227, 226, 226, 1))"></circle><circle r="14.8" cx="1286" cy="167" fill="rgba(64, 127, 255, 1)" opacity="0.09" filter="blur(9px)"></circle><circle r="11.2" cx="1286" cy="167" fill="rgba(64, 127, 255, 1)" opacity="0.14" filter="blur(6px)"></circle><circle r="7.6" cx="1286" cy="167" fill="rgba(64, 127, 255, 1)" opacity="0.28" filter="blur(3px)"></circle><circle r="4" cx="1286" cy="167" fill="rgba(64, 127, 255, 1)" opacity="0.95" filter="drop-shadow(0 0 14.4px rgba(64, 127, 255, 1))"></circle><circle r="7.75" cx="717" cy="376" fill="rgba(227, 226, 226, 1)" opacity="0.05" filter="blur(9px)"></circle><circle r="6" cx="717" cy="376" fill="rgba(227, 226, 226, 1)" opacity="0.08" filter="blur(6px)"></circle><circle r="4.25" cx="717" cy="376" fill="rgba(227, 226, 226, 1)" opacity="0.15" filter="blur(3px)"></circle><circle r="2.5" cx="717" cy="376" fill="rgba(227, 226, 226, 1)" opacity="0.51" filter="drop-shadow(0 0 7px rgba(227, 226, 226, 1))"></circle><circle r="8.85" cx="1040" cy="327" fill="rgba(227, 226, 226, 1)" opacity="0.07" filter="blur(9px)"></circle><circle r="6.9" cx="1040" cy="327" fill="rgba(227, 226, 226, 1)" opacity="0.1" filter="blur(6px)"></circle><circle r="4.95" cx="1040" cy="327" fill="rgba(227, 226, 226, 1)" opacity="0.2" filter="blur(3px)"></circle><circle r="3" cx="1040" cy="327" fill="rgba(227, 226, 226, 1)" opacity="0.67" filter="drop-shadow(0 0 7.8px rgba(227, 226, 226, 1))"></circle><circle r="15.6" cx="1037" cy="242" fill="rgba(64, 127, 255, 1)" opacity="0.09" filter="blur(9px)"></circle><circle r="11.4" cx="1037" cy="242" fill="rgba(64, 127, 255, 1)" opacity="0.14" filter="blur(6px)"></circle><circle r="7.2" cx="1037" cy="242" fill="rgba(64, 127, 255, 1)" opacity="0.28" filter="blur(3px)"></circle><circle r="3" cx="1037" cy="242" fill="rgba(64, 127, 255, 1)" opacity="0.92" filter="drop-shadow(0 0 16.8px rgba(64, 127, 255, 1))"></circle><circle r="13.8" cx="742" cy="362" fill="rgba(227, 226, 226, 1)" opacity="0.07" filter="blur(9px)"></circle><circle r="10.2" cx="742" cy="362" fill="rgba(227, 226, 226, 1)" opacity="0.11" filter="blur(6px)"></circle><circle r="6.6" cx="742" cy="362" fill="rgba(227, 226, 226, 1)" opacity="0.22" filter="blur(3px)"></circle><circle r="3" cx="742" cy="362" fill="rgba(227, 226, 226, 1)" opacity="0.73" filter="drop-shadow(0 0 14.4px rgba(227, 226, 226, 1))"></circle><circle r="6.675" cx="677" cy="270" fill="rgba(64, 127, 255, 1)" opacity="0.07" filter="blur(9px)"></circle><circle r="4.95" cx="677" cy="270" fill="rgba(64, 127, 255, 1)" opacity="0.11" filter="blur(6px)"></circle><circle r="3.225" cx="677" cy="270" fill="rgba(64, 127, 255, 1)" opacity="0.22" filter="blur(3px)"></circle><circle r="1.5" cx="677" cy="270" fill="rgba(64, 127, 255, 1)" opacity="0.72" filter="drop-shadow(0 0 6.9px rgba(64, 127, 255, 1))"></circle><circle r="8.3" cx="672" cy="457" fill="rgba(227, 226, 226, 1)" opacity="0.07" filter="blur(9px)"></circle><circle r="6.2" cx="672" cy="457" fill="rgba(227, 226, 226, 1)" opacity="0.1" filter="blur(6px)"></circle><circle r="4.1" cx="672" cy="457" fill="rgba(227, 226, 226, 1)" opacity="0.21" filter="blur(3px)"></circle><circle r="2" cx="672" cy="457" fill="rgba(227, 226, 226, 1)" opacity="0.69" filter="drop-shadow(0 0 8.4px rgba(227, 226, 226, 1))"></circle><circle r="13.475" cx="1395" cy="147" fill="rgba(227, 226, 226, 1)" opacity="0.06" filter="blur(9px)"></circle><circle r="10.15" cx="1395" cy="147" fill="rgba(227, 226, 226, 1)" opacity="0.09" filter="blur(6px)"></circle><circle r="6.825" cx="1395" cy="147" fill="rgba(227, 226, 226, 1)" opacity="0.18" filter="blur(3px)"></circle><circle r="3.5" cx="1395" cy="147" fill="rgba(227, 226, 226, 1)" opacity="0.59" filter="drop-shadow(0 0 13.3px rgba(227, 226, 226, 1))"></circle><circle r="8.025" cx="1135" cy="461" fill="rgba(227, 226, 226, 1)" opacity="0.07" filter="blur(9px)"></circle><circle r="5.85" cx="1135" cy="461" fill="rgba(227, 226, 226, 1)" opacity="0.1" filter="blur(6px)"></circle><circle r="3.675" cx="1135" cy="461" fill="rgba(227, 226, 226, 1)" opacity="0.21" filter="blur(3px)"></circle><circle r="1.5" cx="1135" cy="461" fill="rgba(227, 226, 226, 1)" opacity="0.69" filter="drop-shadow(0 0 8.7px rgba(227, 226, 226, 1))"></circle><circle r="11.875" cx="913" cy="112" fill="rgba(227, 226, 226, 1)" opacity="0.07" filter="blur(9px)"></circle><circle r="8.75" cx="913" cy="112" fill="rgba(227, 226, 226, 1)" opacity="0.11" filter="blur(6px)"></circle><circle r="5.625" cx="913" cy="112" fill="rgba(227, 226, 226, 1)" opacity="0.22" filter="blur(3px)"></circle><circle r="2.5" cx="913" cy="112" fill="rgba(227, 226, 226, 1)" opacity="0.75" filter="drop-shadow(0 0 12.5px rgba(227, 226, 226, 1))"></circle><circle r="4.2" cx="844" cy="231" fill="rgba(227, 226, 226, 1)" opacity="0.08" filter="blur(9px)"></circle><circle r="3.3" cx="844" cy="231" fill="rgba(227, 226, 226, 1)" opacity="0.11" filter="blur(6px)"></circle><circle r="2.4" cx="844" cy="231" fill="rgba(227, 226, 226, 1)" opacity="0.23" filter="blur(3px)"></circle><circle r="1.5" cx="844" cy="231" fill="rgba(227, 226, 226, 1)" opacity="0.76" filter="drop-shadow(0 0 3.6px rgba(227, 226, 226, 1))"></circle><circle r="8.75" cx="747" cy="498" fill="rgba(227, 226, 226, 1)" opacity="0.07" filter="blur(9px)"></circle><circle r="7" cx="747" cy="498" fill="rgba(227, 226, 226, 1)" opacity="0.1" filter="blur(6px)"></circle><circle r="5.25" cx="747" cy="498" fill="rgba(227, 226, 226, 1)" opacity="0.2" filter="blur(3px)"></circle><circle r="3.5" cx="747" cy="498" fill="rgba(227, 226, 226, 1)" opacity="0.68" filter="drop-shadow(0 0 7px rgba(227, 226, 226, 1))"></circle><circle r="11" cx="753" cy="493" fill="rgba(227, 226, 226, 1)" opacity="0.09" filter="blur(9px)"></circle><circle r="8" cx="753" cy="493" fill="rgba(227, 226, 226, 1)" opacity="0.14" filter="blur(6px)"></circle><circle r="5" cx="753" cy="493" fill="rgba(227, 226, 226, 1)" opacity="0.28" filter="blur(3px)"></circle><circle r="2" cx="753" cy="493" fill="rgba(227, 226, 226, 1)" opacity="0.92" filter="drop-shadow(0 0 12px rgba(227, 226, 226, 1))"></circle><circle r="5.5" cx="815" cy="202" fill="rgba(64, 127, 255, 1)" opacity="0.1" filter="blur(9px)"></circle><circle r="4" cx="815" cy="202" fill="rgba(64, 127, 255, 1)" opacity="0.15" filter="blur(6px)"></circle><circle r="2.5" cx="815" cy="202" fill="rgba(64, 127, 255, 1)" opacity="0.29" filter="blur(3px)"></circle><circle r="1" cx="815" cy="202" fill="rgba(64, 127, 255, 1)" opacity="0.97" filter="drop-shadow(0 0 6px rgba(64, 127, 255, 1))"></circle><circle r="10" cx="856" cy="146" fill="rgba(64, 127, 255, 1)" opacity="0.09" filter="blur(9px)"></circle><circle r="7.5" cx="856" cy="146" fill="rgba(64, 127, 255, 1)" opacity="0.14" filter="blur(6px)"></circle><circle r="5" cx="856" cy="146" fill="rgba(64, 127, 255, 1)" opacity="0.28" filter="blur(3px)"></circle><circle r="2.5" cx="856" cy="146" fill="rgba(64, 127, 255, 1)" opacity="0.94" filter="drop-shadow(0 0 10px rgba(64, 127, 255, 1))"></circle><circle r="6.9" cx="1088" cy="149" fill="rgba(64, 127, 255, 1)" opacity="0.07" filter="blur(9px)"></circle><circle r="5.1" cx="1088" cy="149" fill="rgba(64, 127, 255, 1)" opacity="0.1" filter="blur(6px)"></circle><circle r="3.3" cx="1088" cy="149" fill="rgba(64, 127, 255, 1)" opacity="0.2" filter="blur(3px)"></circle><circle r="1.5" cx="1088" cy="149" fill="rgba(64, 127, 255, 1)" opacity="0.68" filter="drop-shadow(0 0 7.2px rgba(64, 127, 255, 1))"></circle><circle r="7.95" cx="1190" cy="510" fill="rgba(64, 127, 255, 1)" opacity="0.06" filter="blur(9px)"></circle><circle r="6.3" cx="1190" cy="510" fill="rgba(64, 127, 255, 1)" opacity="0.08" filter="blur(6px)"></circle><circle r="4.65" cx="1190" cy="510" fill="rgba(64, 127, 255, 1)" opacity="0.17" filter="blur(3px)"></circle><circle r="3" cx="1190" cy="510" fill="rgba(64, 127, 255, 1)" opacity="0.55" filter="drop-shadow(0 0 6.6px rgba(64, 127, 255, 1))"></circle><circle r="7.95" cx="620" cy="483" fill="rgba(64, 127, 255, 1)" opacity="0.05" filter="blur(9px)"></circle><circle r="6.3" cx="620" cy="483" fill="rgba(64, 127, 255, 1)" opacity="0.08" filter="blur(6px)"></circle><circle r="4.65" cx="620" cy="483" fill="rgba(64, 127, 255, 1)" opacity="0.16" filter="blur(3px)"></circle><circle r="3" cx="620" cy="483" fill="rgba(64, 127, 255, 1)" opacity="0.53" filter="drop-shadow(0 0 6.6px rgba(64, 127, 255, 1))"></circle><circle r="19.6" cx="1011" cy="125" fill="rgba(227, 226, 226, 1)" opacity="0.1" filter="blur(9px)"></circle><circle r="14.4" cx="1011" cy="125" fill="rgba(227, 226, 226, 1)" opacity="0.15" filter="blur(6px)"></circle><circle r="9.2" cx="1011" cy="125" fill="rgba(227, 226, 226, 1)" opacity="0.3" filter="blur(3px)"></circle><circle r="4" cx="1011" cy="125" fill="rgba(227, 226, 226, 1)" opacity="1" filter="drop-shadow(0 0 20.8px rgba(227, 226, 226, 1))"></circle><circle r="17.675" cx="1180" cy="118" fill="rgba(227, 226, 226, 1)" opacity="0.06" filter="blur(9px)"></circle><circle r="12.95" cx="1180" cy="118" fill="rgba(227, 226, 226, 1)" opacity="0.09" filter="blur(6px)"></circle><circle r="8.225" cx="1180" cy="118" fill="rgba(227, 226, 226, 1)" opacity="0.19" filter="blur(3px)"></circle><circle r="3.5" cx="1180" cy="118" fill="rgba(227, 226, 226, 1)" opacity="0.63" filter="drop-shadow(0 0 18.9px rgba(227, 226, 226, 1))"></circle><circle r="12.425" cx="422" cy="469" fill="rgba(64, 127, 255, 1)" opacity="0.07" filter="blur(9px)"></circle><circle r="9.45" cx="422" cy="469" fill="rgba(64, 127, 255, 1)" opacity="0.1" filter="blur(6px)"></circle><circle r="6.475" cx="422" cy="469" fill="rgba(64, 127, 255, 1)" opacity="0.21" filter="blur(3px)"></circle><circle r="3.5" cx="422" cy="469" fill="rgba(64, 127, 255, 1)" opacity="0.69" filter="drop-shadow(0 0 11.9px rgba(64, 127, 255, 1))"></circle><circle r="6" cx="928" cy="204" fill="rgba(64, 127, 255, 1)" opacity="0.07" filter="blur(9px)"></circle><circle r="4.5" cx="928" cy="204" fill="rgba(64, 127, 255, 1)" opacity="0.11" filter="blur(6px)"></circle><circle r="3" cx="928" cy="204" fill="rgba(64, 127, 255, 1)" opacity="0.22" filter="blur(3px)"></circle><circle r="1.5" cx="928" cy="204" fill="rgba(64, 127, 255, 1)" opacity="0.73" filter="drop-shadow(0 0 6px rgba(64, 127, 255, 1))"></circle><circle r="17.675" cx="1054" cy="485" fill="rgba(227, 226, 226, 1)" opacity="0.05" filter="blur(9px)"></circle><circle r="12.95" cx="1054" cy="485" fill="rgba(227, 226, 226, 1)" opacity="0.08" filter="blur(6px)"></circle><circle r="8.225" cx="1054" cy="485" fill="rgba(227, 226, 226, 1)" opacity="0.16" filter="blur(3px)"></circle><circle r="3.5" cx="1054" cy="485" fill="rgba(227, 226, 226, 1)" opacity="0.54" filter="drop-shadow(0 0 18.9px rgba(227, 226, 226, 1))"></circle><circle r="16.6" cx="615" cy="532" fill="rgba(64, 127, 255, 1)" opacity="0.09" filter="blur(9px)"></circle><circle r="12.4" cx="615" cy="532" fill="rgba(64, 127, 255, 1)" opacity="0.13" filter="blur(6px)"></circle><circle r="8.2" cx="615" cy="532" fill="rgba(64, 127, 255, 1)" opacity="0.26" filter="blur(3px)"></circle><circle r="4" cx="615" cy="532" fill="rgba(64, 127, 255, 1)" opacity="0.86" filter="drop-shadow(0 0 16.8px rgba(64, 127, 255, 1))"></circle><circle r="9.3" cx="638" cy="180" fill="rgba(64, 127, 255, 1)" opacity="0.09" filter="blur(9px)"></circle><circle r="7.2" cx="638" cy="180" fill="rgba(64, 127, 255, 1)" opacity="0.14" filter="blur(6px)"></circle><circle r="5.1" cx="638" cy="180" fill="rgba(64, 127, 255, 1)" opacity="0.28" filter="blur(3px)"></circle><circle r="3" cx="638" cy="180" fill="rgba(64, 127, 255, 1)" opacity="0.95" filter="drop-shadow(0 0 8.4px rgba(64, 127, 255, 1))"></circle><circle r="11.125" cx="440" cy="402" fill="rgba(64, 127, 255, 1)" opacity="0.09" filter="blur(9px)"></circle><circle r="8.25" cx="440" cy="402" fill="rgba(64, 127, 255, 1)" opacity="0.14" filter="blur(6px)"></circle><circle r="5.375" cx="440" cy="402" fill="rgba(64, 127, 255, 1)" opacity="0.27" filter="blur(3px)"></circle><circle r="2.5" cx="440" cy="402" fill="rgba(64, 127, 255, 1)" opacity="0.9" filter="drop-shadow(0 0 11.5px rgba(64, 127, 255, 1))"></circle><circle r="14.2" cx="600" cy="498" fill="rgba(227, 226, 226, 1)" opacity="0.07" filter="blur(9px)"></circle><circle r="10.8" cx="600" cy="498" fill="rgba(227, 226, 226, 1)" opacity="0.11" filter="blur(6px)"></circle><circle r="7.4" cx="600" cy="498" fill="rgba(227, 226, 226, 1)" opacity="0.22" filter="blur(3px)"></circle><circle r="4" cx="600" cy="498" fill="rgba(227, 226, 226, 1)" opacity="0.73" filter="drop-shadow(0 0 13.6px rgba(227, 226, 226, 1))"></circle><circle r="16.05" cx="196" cy="65" fill="rgba(64, 127, 255, 1)" opacity="0.05" filter="blur(9px)"></circle><circle r="11.7" cx="196" cy="65" fill="rgba(64, 127, 255, 1)" opacity="0.08" filter="blur(6px)"></circle><circle r="7.35" cx="196" cy="65" fill="rgba(64, 127, 255, 1)" opacity="0.16" filter="blur(3px)"></circle><circle r="3" cx="196" cy="65" fill="rgba(64, 127, 255, 1)" opacity="0.52" filter="drop-shadow(0 0 17.4px rgba(64, 127, 255, 1))"></circle><circle r="9.25" cx="1391" cy="435" fill="rgba(64, 127, 255, 1)" opacity="0.08" filter="blur(9px)"></circle><circle r="7" cx="1391" cy="435" fill="rgba(64, 127, 255, 1)" opacity="0.12" filter="blur(6px)"></circle><circle r="4.75" cx="1391" cy="435" fill="rgba(64, 127, 255, 1)" opacity="0.24" filter="blur(3px)"></circle><circle r="2.5" cx="1391" cy="435" fill="rgba(64, 127, 255, 1)" opacity="0.79" filter="drop-shadow(0 0 9px rgba(64, 127, 255, 1))"></circle><circle r="5.3" cx="862" cy="217" fill="rgba(64, 127, 255, 1)" opacity="0.09" filter="blur(9px)"></circle><circle r="4.2" cx="862" cy="217" fill="rgba(64, 127, 255, 1)" opacity="0.14" filter="blur(6px)"></circle><circle r="3.1" cx="862" cy="217" fill="rgba(64, 127, 255, 1)" opacity="0.28" filter="blur(3px)"></circle><circle r="2" cx="862" cy="217" fill="rgba(64, 127, 255, 1)" opacity="0.93" filter="drop-shadow(0 0 4.4px rgba(64, 127, 255, 1))"></circle><circle r="10.375" cx="59" cy="480" fill="rgba(64, 127, 255, 1)" opacity="0.07" filter="blur(9px)"></circle><circle r="7.75" cx="59" cy="480" fill="rgba(64, 127, 255, 1)" opacity="0.1" filter="blur(6px)"></circle><circle r="5.125" cx="59" cy="480" fill="rgba(64, 127, 255, 1)" opacity="0.2" filter="blur(3px)"></circle><circle r="2.5" cx="59" cy="480" fill="rgba(64, 127, 255, 1)" opacity="0.68" filter="drop-shadow(0 0 10.5px rgba(64, 127, 255, 1))"></circle><circle r="7.95" cx="270" cy="174" fill="rgba(64, 127, 255, 1)" opacity="0.08" filter="blur(9px)"></circle><circle r="6.3" cx="270" cy="174" fill="rgba(64, 127, 255, 1)" opacity="0.12" filter="blur(6px)"></circle><circle r="4.65" cx="270" cy="174" fill="rgba(64, 127, 255, 1)" opacity="0.24" filter="blur(3px)"></circle><circle r="3" cx="270" cy="174" fill="rgba(64, 127, 255, 1)" opacity="0.79" filter="drop-shadow(0 0 6.6px rgba(64, 127, 255, 1))"></circle><circle r="13" cx="1089" cy="381" fill="rgba(227, 226, 226, 1)" opacity="0.09" filter="blur(9px)"></circle><circle r="9.5" cx="1089" cy="381" fill="rgba(227, 226, 226, 1)" opacity="0.13" filter="blur(6px)"></circle><circle r="6" cx="1089" cy="381" fill="rgba(227, 226, 226, 1)" opacity="0.26" filter="blur(3px)"></circle><circle r="2.5" cx="1089" cy="381" fill="rgba(227, 226, 226, 1)" opacity="0.87" filter="drop-shadow(0 0 14px rgba(227, 226, 226, 1))"></circle><circle r="7.4" cx="1171" cy="307" fill="rgba(227, 226, 226, 1)" opacity="0.06" filter="blur(9px)"></circle><circle r="5.6" cx="1171" cy="307" fill="rgba(227, 226, 226, 1)" opacity="0.09" filter="blur(6px)"></circle><circle r="3.8" cx="1171" cy="307" fill="rgba(227, 226, 226, 1)" opacity="0.18" filter="blur(3px)"></circle><circle r="2" cx="1171" cy="307" fill="rgba(227, 226, 226, 1)" opacity="0.61" filter="drop-shadow(0 0 7.2px rgba(227, 226, 226, 1))"></circle><circle r="6.9" cx="926" cy="336" fill="rgba(64, 127, 255, 1)" opacity="0.08" filter="blur(9px)"></circle><circle r="5.1" cx="926" cy="336" fill="rgba(64, 127, 255, 1)" opacity="0.11" filter="blur(6px)"></circle><circle r="3.3" cx="926" cy="336" fill="rgba(64, 127, 255, 1)" opacity="0.23" filter="blur(3px)"></circle><circle r="1.5" cx="926" cy="336" fill="rgba(64, 127, 255, 1)" opacity="0.76" filter="drop-shadow(0 0 7.2px rgba(64, 127, 255, 1))"></circle><circle r="12.425" cx="1200" cy="134" fill="rgba(227, 226, 226, 1)" opacity="0.08" filter="blur(9px)"></circle><circle r="9.45" cx="1200" cy="134" fill="rgba(227, 226, 226, 1)" opacity="0.11" filter="blur(6px)"></circle><circle r="6.475" cx="1200" cy="134" fill="rgba(227, 226, 226, 1)" opacity="0.23" filter="blur(3px)"></circle><circle r="3.5" cx="1200" cy="134" fill="rgba(227, 226, 226, 1)" opacity="0.76" filter="drop-shadow(0 0 11.9px rgba(227, 226, 226, 1))"></circle><circle r="8.125" cx="1272" cy="268" fill="rgba(227, 226, 226, 1)" opacity="0.07" filter="blur(9px)"></circle><circle r="6.25" cx="1272" cy="268" fill="rgba(227, 226, 226, 1)" opacity="0.11" filter="blur(6px)"></circle><circle r="4.375" cx="1272" cy="268" fill="rgba(227, 226, 226, 1)" opacity="0.21" filter="blur(3px)"></circle><circle r="2.5" cx="1272" cy="268" fill="rgba(227, 226, 226, 1)" opacity="0.71" filter="drop-shadow(0 0 7.5px rgba(227, 226, 226, 1))"></circle><circle r="7" cx="574" cy="209" fill="rgba(64, 127, 255, 1)" opacity="0.09" filter="blur(9px)"></circle><circle r="5.5" cx="574" cy="209" fill="rgba(64, 127, 255, 1)" opacity="0.14" filter="blur(6px)"></circle><circle r="4" cx="574" cy="209" fill="rgba(64, 127, 255, 1)" opacity="0.28" filter="blur(3px)"></circle><circle r="2.5" cx="574" cy="209" fill="rgba(64, 127, 255, 1)" opacity="0.95" filter="drop-shadow(0 0 6px rgba(64, 127, 255, 1))"></circle><circle r="7.8" cx="871" cy="256" fill="rgba(227, 226, 226, 1)" opacity="0.09" filter="blur(9px)"></circle><circle r="5.7" cx="871" cy="256" fill="rgba(227, 226, 226, 1)" opacity="0.14" filter="blur(6px)"></circle><circle r="3.6" cx="871" cy="256" fill="rgba(227, 226, 226, 1)" opacity="0.28" filter="blur(3px)"></circle><circle r="1.5" cx="871" cy="256" fill="rgba(227, 226, 226, 1)" opacity="0.95" filter="drop-shadow(0 0 8.4px rgba(227, 226, 226, 1))"></circle><circle r="5.1" cx="799" cy="425" fill="rgba(227, 226, 226, 1)" opacity="0.06" filter="blur(9px)"></circle><circle r="3.9" cx="799" cy="425" fill="rgba(227, 226, 226, 1)" opacity="0.09" filter="blur(6px)"></circle><circle r="2.7" cx="799" cy="425" fill="rgba(227, 226, 226, 1)" opacity="0.18" filter="blur(3px)"></circle><circle r="1.5" cx="799" cy="425" fill="rgba(227, 226, 226, 1)" opacity="0.6" filter="drop-shadow(0 0 4.8px rgba(227, 226, 226, 1))"></circle><circle r="7.75" cx="60" cy="272" fill="rgba(227, 226, 226, 1)" opacity="0.06" filter="blur(9px)"></circle><circle r="6" cx="60" cy="272" fill="rgba(227, 226, 226, 1)" opacity="0.09" filter="blur(6px)"></circle><circle r="4.25" cx="60" cy="272" fill="rgba(227, 226, 226, 1)" opacity="0.17" filter="blur(3px)"></circle><circle r="2.5" cx="60" cy="272" fill="rgba(227, 226, 226, 1)" opacity="0.57" filter="drop-shadow(0 0 7px rgba(227, 226, 226, 1))"></circle><circle r="12" cx="854" cy="300" fill="rgba(227, 226, 226, 1)" opacity="0.09" filter="blur(9px)"></circle><circle r="9" cx="854" cy="300" fill="rgba(227, 226, 226, 1)" opacity="0.14" filter="blur(6px)"></circle><circle r="6" cx="854" cy="300" fill="rgba(227, 226, 226, 1)" opacity="0.28" filter="blur(3px)"></circle><circle r="3" cx="854" cy="300" fill="rgba(227, 226, 226, 1)" opacity="0.95" filter="drop-shadow(0 0 12px rgba(227, 226, 226, 1))"></circle><circle r="18.725" cx="1207" cy="414" fill="rgba(64, 127, 255, 1)" opacity="0.09" filter="blur(9px)"></circle><circle r="13.65" cx="1207" cy="414" fill="rgba(64, 127, 255, 1)" opacity="0.14" filter="blur(6px)"></circle><circle r="8.575" cx="1207" cy="414" fill="rgba(64, 127, 255, 1)" opacity="0.28" filter="blur(3px)"></circle><circle r="3.5" cx="1207" cy="414" fill="rgba(64, 127, 255, 1)" opacity="0.92" filter="drop-shadow(0 0 20.3px rgba(64, 127, 255, 1))"></circle><circle r="11.5" cx="664" cy="399" fill="rgba(227, 226, 226, 1)" opacity="0.07" filter="blur(9px)"></circle><circle r="8.5" cx="664" cy="399" fill="rgba(227, 226, 226, 1)" opacity="0.1" filter="blur(6px)"></circle><circle r="5.5" cx="664" cy="399" fill="rgba(227, 226, 226, 1)" opacity="0.2" filter="blur(3px)"></circle><circle r="2.5" cx="664" cy="399" fill="rgba(227, 226, 226, 1)" opacity="0.68" filter="drop-shadow(0 0 12px rgba(227, 226, 226, 1))"></circle><circle r="6.5" cx="1350" cy="364" fill="rgba(227, 226, 226, 1)" opacity="0.09" filter="blur(9px)"></circle><circle r="5" cx="1350" cy="364" fill="rgba(227, 226, 226, 1)" opacity="0.14" filter="blur(6px)"></circle><circle r="3.5" cx="1350" cy="364" fill="rgba(227, 226, 226, 1)" opacity="0.27" filter="blur(3px)"></circle><circle r="2" cx="1350" cy="364" fill="rgba(227, 226, 226, 1)" opacity="0.91" filter="drop-shadow(0 0 6px rgba(227, 226, 226, 1))"></circle><circle r="6" cx="581" cy="390" fill="rgba(227, 226, 226, 1)" opacity="0.06" filter="blur(9px)"></circle><circle r="4.5" cx="581" cy="390" fill="rgba(227, 226, 226, 1)" opacity="0.1" filter="blur(6px)"></circle><circle r="3" cx="581" cy="390" fill="rgba(227, 226, 226, 1)" opacity="0.19" filter="blur(3px)"></circle><circle r="1.5" cx="581" cy="390" fill="rgba(227, 226, 226, 1)" opacity="0.64" filter="drop-shadow(0 0 6px rgba(227, 226, 226, 1))"></circle><circle r="5.1" cx="271" cy="373" fill="rgba(227, 226, 226, 1)" opacity="0.08" filter="blur(9px)"></circle><circle r="3.9" cx="271" cy="373" fill="rgba(227, 226, 226, 1)" opacity="0.12" filter="blur(6px)"></circle><circle r="2.7" cx="271" cy="373" fill="rgba(227, 226, 226, 1)" opacity="0.23" filter="blur(3px)"></circle><circle r="1.5" cx="271" cy="373" fill="rgba(227, 226, 226, 1)" opacity="0.77" filter="drop-shadow(0 0 4.8px rgba(227, 226, 226, 1))"></circle><circle r="14.25" cx="965" cy="498" fill="rgba(227, 226, 226, 1)" opacity="0.08" filter="blur(9px)"></circle><circle r="10.5" cx="965" cy="498" fill="rgba(227, 226, 226, 1)" opacity="0.12" filter="blur(6px)"></circle><circle r="6.75" cx="965" cy="498" fill="rgba(227, 226, 226, 1)" opacity="0.25" filter="blur(3px)"></circle><circle r="3" cx="965" cy="498" fill="rgba(227, 226, 226, 1)" opacity="0.82" filter="drop-shadow(0 0 15px rgba(227, 226, 226, 1))"></circle><circle r="10.65" cx="124" cy="99" fill="rgba(227, 226, 226, 1)" opacity="0.07" filter="blur(9px)"></circle><circle r="8.1" cx="124" cy="99" fill="rgba(227, 226, 226, 1)" opacity="0.1" filter="blur(6px)"></circle><circle r="5.55" cx="124" cy="99" fill="rgba(227, 226, 226, 1)" opacity="0.21" filter="blur(3px)"></circle><circle r="3" cx="124" cy="99" fill="rgba(227, 226, 226, 1)" opacity="0.69" filter="drop-shadow(0 0 10.2px rgba(227, 226, 226, 1))"></circle><circle r="13.8" cx="241" cy="503" fill="rgba(64, 127, 255, 1)" opacity="0.1" filter="blur(9px)"></circle><circle r="10.2" cx="241" cy="503" fill="rgba(64, 127, 255, 1)" opacity="0.15" filter="blur(6px)"></circle><circle r="6.6" cx="241" cy="503" fill="rgba(64, 127, 255, 1)" opacity="0.29" filter="blur(3px)"></circle><circle r="3" cx="241" cy="503" fill="rgba(64, 127, 255, 1)" opacity="0.98" filter="drop-shadow(0 0 14.4px rgba(64, 127, 255, 1))"></circle><circle r="8.3" cx="40" cy="272" fill="rgba(227, 226, 226, 1)" opacity="0.09" filter="blur(9px)"></circle><circle r="6.2" cx="40" cy="272" fill="rgba(227, 226, 226, 1)" opacity="0.13" filter="blur(6px)"></circle><circle r="4.1" cx="40" cy="272" fill="rgba(227, 226, 226, 1)" opacity="0.26" filter="blur(3px)"></circle><circle r="2" cx="40" cy="272" fill="rgba(227, 226, 226, 1)" opacity="0.86" filter="drop-shadow(0 0 8.4px rgba(227, 226, 226, 1))"></circle><circle r="6.45" cx="76" cy="318" fill="rgba(64, 127, 255, 1)" opacity="0.05" filter="blur(9px)"></circle><circle r="4.8" cx="76" cy="318" fill="rgba(64, 127, 255, 1)" opacity="0.07" filter="blur(6px)"></circle><circle r="3.15" cx="76" cy="318" fill="rgba(64, 127, 255, 1)" opacity="0.15" filter="blur(3px)"></circle><circle r="1.5" cx="76" cy="318" fill="rgba(64, 127, 255, 1)" opacity="0.5" filter="drop-shadow(0 0 6.6px rgba(64, 127, 255, 1))"></circle></g><defs><clipPath id="SvgjsClipPath1017"><rect width="1440" height="560" x="0" y="0"></rect></clipPath></defs></svg>